<?xml version="1.0" encoding="UTF-8" standalone="no"?>
<!DOCTYPE svg PUBLIC "-//W3C//DTD SVG 1.1//EN"
 "http://www.w3.org/Graphics/SVG/1.1/DTD/svg11.dtd">
<!-- Generated by graphviz version 2.43.0 (0)
 -->
<!-- Title: %3 Pages: 1 -->
<svg width="595pt" height="134pt"
 viewBox="0.00 0.00 595.38 134.00" xmlns="http://www.w3.org/2000/svg" xmlns:xlink="http://www.w3.org/1999/xlink">
<g id="graph0" class="graph" transform="scale(1 1) rotate(0) translate(4 130)">
<title>%3</title>
<polygon fill="white" stroke="transparent" points="-4,4 -4,-130 591.38,-130 591.38,4 -4,4"/>
<!-- 0 -->
<g id="node1" class="node">
<title>0</title>
<polygon fill="none" stroke="black" points="358.54,-126 173.54,-126 173.54,-73 358.54,-73 358.54,-126"/>
<text text-anchor="middle" x="266.04" y="-110.8" font-family="Times,serif" font-size="14.00">ğœ=2020&#45;08&#45;01 04:30:00</text>
<text text-anchor="middle" x="266.04" y="-95.8" font-family="Times,serif" font-size="14.00">p=7 days, 0:00:00</text>
<text text-anchor="middle" x="266.04" y="-80.8" font-family="Times,serif" font-size="14.00">r=5</text>
</g>
<!-- 1 -->
<g id="node2" class="node">
<title>1</title>
<ellipse fill="none" stroke="black" cx="102.04" cy="-18" rx="102.08" ry="18"/>
<text text-anchor="middle" x="102.04" y="-14.3" font-family="Times,serif" font-size="14.00">Rick Mercer Report</text>
</g>
<!-- 0&#45;&gt;1 -->
<g id="edge1" class="edge">
<title>0&#45;&gt;1</title>
<path fill="none" stroke="black" d="M213.25,-72.91C187.59,-60.47 157.55,-45.91 135.16,-35.05"/>
</g>
<!-- 2 -->
<g id="node3" class="node">
<title>2</title>
<ellipse fill="none" stroke="black" cx="432.04" cy="-18" rx="155.17" ry="18"/>
<text text-anchor="middle" x="432.04" y="-14.3" font-family="Times,serif" font-size="14.00">The Adventures of Napkin Man</text>
</g>
<!-- 0&#45;&gt;2 -->
<g id="edge2" class="edge">
<title>0&#45;&gt;2</title>
<path fill="none" stroke="black" d="M319.48,-72.91C344.97,-60.7 374.75,-46.44 397.27,-35.65"/>
</g>
<!-- 1&#45;&gt;2 -->
<g id="edge3" class="edge">
<title>1&#45;&gt;2</title>
<path fill="none" stroke="black" stroke-dasharray="1,5" d="M204.2,-18C223.97,-18 245.16,-18 266.36,-18"/>
<polygon fill="black" stroke="black" points="266.43,-21.5 276.43,-18 266.43,-14.5 266.43,-21.5"/>
<text text-anchor="middle" x="240.39" y="-24.8" font-family="Times,serif" font-size="14.00">1:47:00</text>
</g>
</g>
</svg>
