<?xml version="1.0" encoding="UTF-8" standalone="no"?>
<!DOCTYPE svg PUBLIC "-//W3C//DTD SVG 1.1//EN"
 "http://www.w3.org/Graphics/SVG/1.1/DTD/svg11.dtd">
<!-- Generated by graphviz version 2.50.0 (0)
 -->
<!-- Pages: 1 -->
<svg width="1067pt" height="134pt"
 viewBox="0.00 0.00 1067.29 134.00" xmlns="http://www.w3.org/2000/svg" xmlns:xlink="http://www.w3.org/1999/xlink">
<g id="graph0" class="graph" transform="scale(1 1) rotate(0) translate(4 130)">
<polygon fill="white" stroke="transparent" points="-4,4 -4,-130 1063.29,-130 1063.29,4 -4,4"/>
<!-- 0 -->
<g id="node1" class="node">
<title>0</title>
<polygon fill="none" stroke="black" points="528.45,-126 382.45,-126 382.45,-73 528.45,-73 528.45,-126"/>
<text text-anchor="middle" x="455.45" y="-110.8" font-family="Times,serif" font-size="14.00">𝜏=2020&#45;08&#45;01 06:15:00</text>
<text text-anchor="middle" x="455.45" y="-95.8" font-family="Times,serif" font-size="14.00">p=7 days, 0:00:00</text>
<text text-anchor="middle" x="455.45" y="-80.8" font-family="Times,serif" font-size="14.00">r=5</text>
</g>
<!-- 1 -->
<g id="node2" class="node">
<title>1</title>
<ellipse fill="none" stroke="black" cx="47.45" cy="-18" rx="47.39" ry="18"/>
<text text-anchor="middle" x="47.45" y="-14.3" font-family="Times,serif" font-size="14.00">CBC Kids</text>
</g>
<!-- 0&#45;&gt;1 -->
<g id="edge1" class="edge">
<title>0&#45;&gt;1</title>
<path fill="none" stroke="black" d="M382.03,-84.2C296.23,-67.48 157.25,-40.4 88.56,-27.01"/>
</g>
<!-- 2 -->
<g id="node3" class="node">
<title>2</title>
<ellipse fill="none" stroke="black" cx="240.45" cy="-18" rx="85.59" ry="18"/>
<text text-anchor="middle" x="240.45" y="-14.3" font-family="Times,serif" font-size="14.00">Big Block Sing Song</text>
</g>
<!-- 0&#45;&gt;2 -->
<g id="edge2" class="edge">
<title>0&#45;&gt;2</title>
<path fill="none" stroke="black" d="M386.23,-72.91C351.49,-60.06 310.62,-44.95 281,-34"/>
</g>
<!-- 3 -->
<g id="node4" class="node">
<title>3</title>
<ellipse fill="none" stroke="black" cx="455.45" cy="-18" rx="69.59" ry="18"/>
<text text-anchor="middle" x="455.45" y="-14.3" font-family="Times,serif" font-size="14.00">Furchester Hotel</text>
</g>
<!-- 0&#45;&gt;3 -->
<g id="edge4" class="edge">
<title>0&#45;&gt;3</title>
<path fill="none" stroke="black" d="M455.45,-72.91C455.45,-60.92 455.45,-46.97 455.45,-36.26"/>
</g>
<!-- 4 -->
<g id="node5" class="node">
<title>4</title>
<ellipse fill="none" stroke="black" cx="747.45" cy="-18" rx="163.27" ry="18"/>
<text text-anchor="middle" x="747.45" y="-14.3" font-family="Times,serif" font-size="14.00">Ollie: The Boy Who Became What He Ate</text>
</g>
<!-- 0&#45;&gt;4 -->
<g id="edge6" class="edge">
<title>0&#45;&gt;4</title>
<path fill="none" stroke="black" d="M528.75,-78.54C578.42,-65.02 643.16,-47.39 689.28,-34.84"/>
</g>
<!-- 5 -->
<g id="node6" class="node">
<title>5</title>
<ellipse fill="none" stroke="black" cx="1014.45" cy="-18" rx="44.69" ry="18"/>
<text text-anchor="middle" x="1014.45" y="-14.3" font-family="Times,serif" font-size="14.00">PJ Masks</text>
</g>
<!-- 0&#45;&gt;5 -->
<g id="edge8" class="edge">
<title>0&#45;&gt;5</title>
<path fill="none" stroke="black" d="M528.72,-89.62C620.29,-78.3 781.73,-57.59 919.45,-36 937.65,-33.15 957.75,-29.61 974.76,-26.5"/>
</g>
<!-- 1&#45;&gt;2 -->
<g id="edge3" class="edge">
<title>1&#45;&gt;2</title>
<path fill="none" stroke="black" stroke-dasharray="1,5" d="M95.15,-18C110.18,-18 127.34,-18 144.48,-18"/>
<polygon fill="black" stroke="black" points="144.56,-21.5 154.56,-18 144.56,-14.5 144.56,-21.5"/>
<text text-anchor="middle" x="124.77" y="-24.8" font-family="Times,serif" font-size="14.00">1:40:00</text>
</g>
<!-- 2&#45;&gt;3 -->
<g id="edge5" class="edge">
<title>2&#45;&gt;3</title>
<path fill="none" stroke="black" stroke-dasharray="1,5" d="M326.35,-18C342.56,-18 359.46,-18 375.48,-18"/>
<polygon fill="black" stroke="black" points="375.87,-21.5 385.87,-18 375.87,-14.5 375.87,-21.5"/>
<text text-anchor="middle" x="356.07" y="-24.8" font-family="Times,serif" font-size="14.00">0:02:00</text>
</g>
<!-- 3&#45;&gt;4 -->
<g id="edge7" class="edge">
<title>3&#45;&gt;4</title>
<path fill="none" stroke="black" stroke-dasharray="1,5" d="M525.02,-18C540.17,-18 556.86,-18 574.08,-18"/>
<polygon fill="black" stroke="black" points="574.27,-21.5 584.27,-18 574.27,-14.5 574.27,-21.5"/>
<text text-anchor="middle" x="554.65" y="-24.8" font-family="Times,serif" font-size="14.00">0:38:00</text>
</g>
<!-- 4&#45;&gt;5 -->
<g id="edge9" class="edge">
<title>4&#45;&gt;5</title>
<path fill="none" stroke="black" stroke-dasharray="1,5" d="M910.83,-18C928.08,-18 944.63,-18 959.24,-18"/>
<polygon fill="black" stroke="black" points="959.52,-21.5 969.52,-18 959.52,-14.5 959.52,-21.5"/>
<text text-anchor="middle" x="940.09" y="-24.8" font-family="Times,serif" font-size="14.00">0:12:00</text>
</g>
</g>
</svg>
